<svg id="ICON" xmlns="http://www.w3.org/2000/svg" viewBox="0 0 168 128"><title>cloud-server</title><g id="cloud-server"><path d="M124,128H46A46,46,0,0,1,24.779,41.186a49.993,49.993,0,0,1,85.9-25.157c.468-.02.9-.029,1.325-.029a35.968,35.968,0,0,1,35.63,30.877A44,44,0,0,1,124,128ZM74,4A45.742,45.742,0,0,0,28.561,42.822a2,2,0,0,1-1.092,1.485A42,42,0,0,0,46,124h78a40,40,0,0,0,20.729-74.216,2,2,0,0,1-.948-1.481A31.966,31.966,0,0,0,112,20c-.614,0-1.262.023-2.04.072a2.014,2.014,0,0,1-1.619-.665A46.061,46.061,0,0,0,74,4Z" style="fill:#001b41"/><path d="M124,108H46A26,26,0,0,1,34.54,58.66l8.382-4.13L44.368,45.3A30,30,0,0,1,99.86,34.8,24,24,0,0,1,129.845,60.72,24,24,0,0,1,124,108ZM74,24A26.16,26.16,0,0,0,48.32,45.917L46.713,56.175a2,2,0,0,1-1.092,1.484l-9.313,4.589A22,22,0,0,0,46,104h78a20,20,0,0,0,3.255-39.732,2,2,0,0,1-1.639-2.362A20,20,0,0,0,99.537,39.074a2,2,0,0,1-2.424-.976A25.922,25.922,0,0,0,74,24Z" style="fill:#0b9dcc"/></g></svg>